<?xml version="1.0" encoding="utf-8"?>
<!-- Generator: Adobe Illustrator 25.3.1, SVG Export Plug-In . SVG Version: 6.00 Build 0)  -->
<svg version="1.1" id="Livello_1" xmlns="http://www.w3.org/2000/svg" xmlns:xlink="http://www.w3.org/1999/xlink" x="0px" y="0px"
	 viewBox="0 0 80.5 80.5" style="enable-background:new 0 0 80.5 80.5;" xml:space="preserve">
<style type="text/css">
	.st0{fill:#F9B333;}
</style>
<path class="st0" d="M53.4,40.3C53.4,23.7,65,9.8,80.5,6.3H33.9C15.2,6.3,0,21.5,0,40.3C0,59,15.2,74.2,33.9,74.2h46.6
	C65,70.7,53.4,56.9,53.4,40.3z M44.1,58.7c-3,2.5-7,3.6-10.9,3.6c-4.8,0-9.6-1.6-13.5-4.4l4.3-8c2.5,2.2,5.4,4,8.9,4
	c2.3,0,4.8-1.2,4.8-3.9c0-2.8-3.9-3.8-6.1-4.4c-6.3-1.8-10.4-3.4-10.4-10.8c0-7.8,5.5-12.9,13.2-12.9c3.9,0,8.6,1.2,12,3.2l-4,7.7
	c-1.8-1.5-4.2-2.5-6.6-2.5c-1.8,0-4.3,1.1-4.3,3.2c0,2.2,2.7,3.1,4.4,3.7l2.5,0.8c5.3,1.6,9.5,4.3,9.5,10.5
	C48.1,52.2,47.2,56.1,44.1,58.7z"/>
</svg>
