<?xml version="1.0" encoding="utf-8"?>
<!-- Generator: Adobe Illustrator 25.3.1, SVG Export Plug-In . SVG Version: 6.00 Build 0)  -->
<svg version="1.1" id="Livello_1" xmlns="http://www.w3.org/2000/svg" xmlns:xlink="http://www.w3.org/1999/xlink" x="0px" y="0px"
	 viewBox="0 0 400 67.9" style="enable-background:new 0 0 400 67.9;" xml:space="preserve">
<style type="text/css">
	.st0{display:none;fill:#F6B331;}
	.st1{fill:#F9B233;}
</style>
<rect x="-50" y="-50.3" class="st0" width="500" height="160.5"/>
<g>
	<path class="st1" d="M185.5,24.2h-1v9.6h1c3.3,0,6.9-0.6,6.9-4.8C192.4,24.8,188.7,24.2,185.5,24.2z"/>
	<polygon class="st1" points="141.8,28.4 137.7,40.7 146,40.7 141.9,28.4 	"/>
	<polygon class="st1" points="400,23.3 400,14.9 378.2,14.9 378.2,53.3 400,53.3 400,44.8 388.1,44.8 388.1,38.2 399.4,38.2 
		399.4,29.7 388.1,29.7 388.1,23.3 	"/>
	<polygon class="st1" points="355.5,38.3 355.4,38.3 337.1,14.9 327.1,14.9 327.1,53.3 337.1,53.3 337.1,29.7 337.2,29.7 
		355.5,53.3 365.4,53.3 365.4,14.9 355.5,14.9 	"/>
	<path class="st1" d="M258.4,33.9c0-16.6,11.6-30.5,27.2-33.9H33.9C15.2,0,0,15.2,0,33.9c0,18.7,15.2,33.9,33.9,33.9h251.6
		C270,64.4,258.4,50.5,258.4,33.9z M44.1,52.4c-3,2.5-7,3.6-10.9,3.6c-4.8,0-9.6-1.6-13.5-4.4l4.3-8c2.5,2.2,5.4,4,8.9,4
		c2.3,0,4.8-1.2,4.8-3.9c0-2.8-3.9-3.8-6.1-4.4c-6.3-1.8-10.4-3.4-10.4-10.8c0-7.8,5.5-12.9,13.2-12.9c3.9,0,8.6,1.2,12,3.2l-4,7.7
		c-1.8-1.5-4.2-2.5-6.6-2.5c-1.8,0-4.3,1.1-4.3,3.2c0,2.2,2.7,3.1,4.4,3.7l2.5,0.8c5.3,1.6,9.5,4.3,9.5,10.5
		C48.1,45.8,47.2,49.8,44.1,52.4z M99,55l-2.8-22.1h-0.1L86.9,55h-4l-8.8-22.1H74L70.8,55h-9.9l6.5-38.4h9.8L85,37.1l8.2-20.5h9.9
		l5.8,38.4H99z M151.2,55l-2.5-6.7h-13.7l-2.6,6.7h-10.6l14.8-38.4h10.9L161.8,55H151.2z M194,55l-9.4-14.8h-0.1V55h-10V16.6h14.9
		c7.6,0,13.3,3.6,13.3,11.8c0,5.3-3,9.9-8.4,10.8L206.4,55H194z M245.6,25h-8.2V55h-10V25h-8.2v-8.5h26.5V25z"/>
	<path class="st1" d="M293.1,13.6c-11,0-21.2,8.1-21.2,19.8c0,12.4,8.9,21.2,21.2,21.2c12.3,0,21.2-8.8,21.2-21.2
		C314.4,21.8,304.2,13.6,293.1,13.6z M293.1,44.9c-6,0-10.8-4.8-10.8-11.5c0-5.3,4.9-10.1,10.8-10.1c6,0,10.8,4.8,10.8,10.1
		C304,40,299.1,44.9,293.1,44.9z"/>
</g>
</svg>
