<?xml version="1.0" encoding="utf-8"?>
<!-- Generator: Adobe Illustrator 25.3.1, SVG Export Plug-In . SVG Version: 6.00 Build 0)  -->
<svg version="1.1" id="Livello_1" xmlns="http://www.w3.org/2000/svg" xmlns:xlink="http://www.w3.org/1999/xlink" x="0px" y="0px"
	 viewBox="0 0 465.2 115.3" style="enable-background:new 0 0 465.2 115.3;" xml:space="preserve">
<style type="text/css">
	.st0{fill:#F9B233;}
</style>
<g>
	<g>
		<g>
			<path class="st0" d="M125.4,13.4l5.9-7.9c2.6-3.5,6.7-5.5,11-5.5c4.3,0.1,8.4,2.2,10.8,5.7l40.7,57.9c4.3,6.1,2.8,14.5-3.3,18.8
				c-2.4,1.7-5.1,2.5-7.7,2.5c-4.2,0-8.4-2-11-5.7L125.4,13.4"/>
			<path class="st0" d="M82.4,13.4l5.9-7.9C90.8,2,94.9,0,99.2,0c4.3,0.1,8.4,2.2,10.8,5.7l40.7,57.9c4.3,6.1,2.8,14.5-3.3,18.8
				c-2.4,1.7-5.1,2.5-7.7,2.5c-4.2,0-8.4-2-11-5.7L82.4,13.4"/>
			<path class="st0" d="M45.3,63.4c-4.4,6-3.2,14.4,2.8,18.8c6,4.4,14.4,3.2,18.8-2.8l5-6.7L55.7,49.4L45.3,63.4z"/>
			<path class="st0" d="M67.4,5.7C64.9,2.2,60.8,0.1,56.5,0c-4.3,0-8.4,2-11,5.5L2.6,63.4c-4.4,6-3.2,14.4,2.8,18.8
				c6,4.4,14.4,3.2,18.8-2.8l31.8-42.9l4.5,6.4l16.3,23.2L86,79.1c2.6,3.7,6.8,5.7,11,5.7c2.7,0,5.4-0.8,7.7-2.5
				c6.1-4.3,7.5-12.7,3.3-18.8L93.7,43.3L77.4,20L67.4,5.7z"/>
		</g>
		<path class="st0" d="M1.4,101.1H3l5.1,7.6l5.1-7.6h1.6v14h-1.6v-11.3l-5.1,7.5H8.1L3,103.8v11.3H1.4V101.1z"/>
		<path class="st0" d="M20.8,101.1h10.1v1.4h-8.5v4.8H30v1.4h-7.6v4.9H31v1.4H20.8V101.1z"/>
		<path class="st0" d="M36.2,101.1h4.9c4.4,0,7.4,3,7.4,7v0c0,3.9-3,7-7.4,7h-4.9V101.1z M37.8,102.6v11.1h3.3
			c3.5,0,5.8-2.4,5.8-5.5v0c0-3.1-2.3-5.5-5.8-5.5H37.8z"/>
		<path class="st0" d="M54,101.1h1.6v14H54V101.1z"/>
		<path class="st0" d="M61.1,108.1L61.1,108.1c0-4,3-7.3,7.1-7.3c2.5,0,4.1,0.9,5.5,2.2l-1.1,1.2c-1.2-1.1-2.5-1.9-4.4-1.9
			c-3.1,0-5.4,2.5-5.4,5.7v0c0,3.2,2.3,5.8,5.4,5.8c1.9,0,3.2-0.7,4.5-2l1,1c-1.5,1.5-3.1,2.5-5.6,2.5
			C64,115.3,61.1,112.2,61.1,108.1z"/>
		<path class="st0" d="M83.6,101h1.5l6.4,14.1h-1.7l-1.6-3.7h-7.6l-1.7,3.7h-1.6L83.6,101z M87.5,110l-3.2-7.1l-3.2,7.1H87.5z"/>
		<path class="st0" d="M96.3,101.1h1.6v12.5h7.9v1.5h-9.5V101.1z"/>
		<path class="st0" d="M126.8,101.1h1.6v14h-1.6V101.1z"/>
		<path class="st0" d="M134.5,101.1h1.5l8.8,11.2v-11.2h1.5v14h-1.3l-9-11.5v11.5h-1.5V101.1z"/>
		<path class="st0" d="M156,102.6h-4.7v-1.5h11v1.5h-4.7v12.5H156V102.6z"/>
		<path class="st0" d="M167.3,101.1h10.1v1.4h-8.5v4.8h7.6v1.4h-7.6v4.9h8.6v1.4h-10.2V101.1z"/>
		<path class="st0" d="M182.7,101.1h6c1.7,0,3.1,0.5,4,1.4c0.7,0.7,1.1,1.7,1.1,2.8v0c0,2.3-1.6,3.7-3.8,4.1l4.3,5.7h-1.9l-4.1-5.4
			h-4v5.4h-1.6V101.1z M188.6,108.2c2.1,0,3.6-1.1,3.6-2.9v0c0-1.7-1.3-2.8-3.6-2.8h-4.3v5.7H188.6z"/>
		<path class="st0" d="M199.1,101.1h1.5l8.8,11.2v-11.2h1.5v14h-1.3l-9-11.5v11.5h-1.5V101.1z"/>
		<path class="st0" d="M222.1,101h1.5l6.4,14.1h-1.7l-1.6-3.7H219l-1.7,3.7h-1.6L222.1,101z M226,110l-3.2-7.1l-3.2,7.1H226z"/>
		<path class="st0" d="M236.7,102.6H232v-1.5h11v1.5h-4.7v12.5h-1.6V102.6z"/>
		<path class="st0" d="M248.1,101.1h1.6v14h-1.6V101.1z"/>
		<path class="st0" d="M255.1,108.1L255.1,108.1c0-3.9,2.9-7.3,7.2-7.3c4.3,0,7.1,3.3,7.1,7.2v0c0,3.9-2.9,7.2-7.2,7.2
			C258,115.3,255.1,112,255.1,108.1z M267.8,108.1L267.8,108.1c0-3.2-2.3-5.8-5.5-5.8c-3.2,0-5.5,2.6-5.5,5.7v0
			c0,3.2,2.3,5.8,5.5,5.8C265.5,113.9,267.8,111.3,267.8,108.1z"/>
		<path class="st0" d="M274.8,101.1h1.5l8.8,11.2v-11.2h1.5v14h-1.3l-9-11.5v11.5h-1.5V101.1z"/>
		<path class="st0" d="M297.8,101h1.5l6.4,14.1h-1.7l-1.6-3.7h-7.6l-1.7,3.7h-1.6L297.8,101z M301.7,110l-3.2-7.1l-3.2,7.1H301.7z"
			/>
		<path class="st0" d="M310.4,101.1h1.6v12.5h7.9v1.5h-9.5V101.1z"/>
		<path class="st0" d="M340.8,101.1h6c1.7,0,3.1,0.5,4,1.4c0.7,0.7,1.1,1.7,1.1,2.8v0c0,2.3-1.6,3.7-3.8,4.1l4.3,5.7h-1.9l-4.1-5.4
			h-4v5.4h-1.6V101.1z M346.7,108.2c2.1,0,3.6-1.1,3.6-2.9v0c0-1.7-1.3-2.8-3.6-2.8h-4.3v5.7H346.7z"/>
		<path class="st0" d="M357.2,101.1h10.1v1.4h-8.5v4.8h7.6v1.4h-7.6v4.9h8.6v1.4h-10.2V101.1z"/>
		<path class="st0" d="M371.7,113.1l1-1.2c1.5,1.3,2.9,2,4.8,2c1.9,0,3.1-1,3.1-2.4v0c0-1.3-0.7-2-3.6-2.7c-3.2-0.7-4.7-1.7-4.7-4v0
			c0-2.2,1.9-3.8,4.6-3.8c2,0,3.5,0.6,4.9,1.7l-0.9,1.2c-1.3-1.1-2.6-1.5-4-1.5c-1.8,0-3,1-3,2.3v0c0,1.3,0.7,2.1,3.8,2.7
			c3.1,0.7,4.6,1.8,4.6,4v0c0,2.4-2,4-4.8,4C375.2,115.3,373.4,114.6,371.7,113.1z"/>
		<path class="st0" d="M387.5,101.1h10.1v1.4H389v4.8h7.6v1.4H389v4.9h8.6v1.4h-10.2V101.1z"/>
		<path class="st0" d="M408.1,101h1.5l6.4,14.1h-1.7l-1.6-3.7H405l-1.7,3.7h-1.6L408.1,101z M412,110l-3.2-7.1l-3.2,7.1H412z"/>
		<path class="st0" d="M420.7,101.1h6c1.7,0,3.1,0.5,4,1.4c0.7,0.7,1.1,1.7,1.1,2.8v0c0,2.3-1.6,3.7-3.8,4.1l4.3,5.7h-1.9l-4.1-5.4
			h-4v5.4h-1.6V101.1z M426.6,108.2c2.1,0,3.6-1.1,3.6-2.9v0c0-1.7-1.3-2.8-3.6-2.8h-4.3v5.7H426.6z"/>
		<path class="st0" d="M436.5,108.1L436.5,108.1c0-4,3-7.3,7.1-7.3c2.5,0,4.1,0.9,5.5,2.2l-1.1,1.2c-1.2-1.1-2.5-1.9-4.4-1.9
			c-3.1,0-5.4,2.5-5.4,5.7v0c0,3.2,2.3,5.8,5.4,5.8c1.9,0,3.2-0.7,4.5-2l1,1c-1.5,1.5-3.1,2.5-5.6,2.5
			C439.5,115.3,436.5,112.2,436.5,108.1z"/>
		<path class="st0" d="M453.9,101.1h1.6v6.2h8.1v-6.2h1.6v14h-1.6v-6.3h-8.1v6.3h-1.6V101.1z"/>
	</g>
	<g>
		<path class="st0" d="M228.9,0.1h31.7l11.7,44.5h0.8c0.3-1.9,0.6-3.8,0.9-5.7c0.3-1.9,0.7-3.8,1.2-5.6l9.5-33.2h31.3L330,84.8
			h-29.8l-4.2-46.4h-0.6c-0.3,1.4-0.6,2.8-0.9,4.3c-0.3,1.4-0.7,2.8-1.1,4.2l-12.2,38h-18l-11-35.8c-0.4-1.8-0.8-3.6-1.2-5.3
			c-0.3-1.7-0.6-3.5-0.7-5.3h-1c-0.1,1.7-0.3,3.4-0.4,5.1c-0.1,1.7-0.2,3.4-0.4,5.1L245,84.8h-29.8L228.9,0.1z"/>
		<path class="st0" d="M340.5,0.1h30.8v84.7h-30.8V0.1z"/>
		<path class="st0" d="M385.6,0.1h37.2c4.8,0,9.3,0.5,13.6,1.6c4.3,1,8,2.8,11.2,5.1c3.2,2.4,5.8,5.4,7.6,9.2
			c1.9,3.7,2.8,8.3,2.8,13.6c0,3.2-0.3,6-1,8.3c-0.6,2.3-1.6,4.3-3,6.1c-1.3,1.7-3.1,3.2-5.1,4.4c-2.1,1.2-4.5,2.3-7.4,3.3v0.7
			c0.8,0.6,1.7,1.3,2.6,2c0.9,0.7,1.8,1.8,2.6,3l18.4,27.5h-35.5l-13.5-27.2h-0.6v27.2h-30.1V0.1z M415.7,37.6h2.1
			c1.3,0,2.5-0.1,3.7-0.2c1.2-0.2,2.3-0.5,3.3-1c1-0.5,1.7-1.2,2.3-2.1c0.6-0.9,0.8-2.2,0.8-3.8c0-1.6-0.3-2.9-0.8-3.9
			c-0.5-0.9-1.2-1.7-2.1-2.2c-0.9-0.5-1.9-0.9-3.1-1c-1.2-0.1-2.5-0.2-3.8-0.2h-2.4V37.6z"/>
	</g>
</g>
</svg>
